<svg width="19" height="20" viewBox="0 0 19 20" fill="none" xmlns="http://www.w3.org/2000/svg">
<path d="M17.8091 19.0935C15.6389 19.0935 13.4948 18.6202 11.3768 17.6737C9.25873 16.7272 7.33165 15.3862 5.59554 13.6508C3.85943 11.9147 2.51846 9.98757 1.57262 7.86952C0.62679 5.75146 0.153526 3.60736 0.152832 1.43723C0.152832 1.12473 0.256999 0.864309 0.465332 0.655975C0.673665 0.447642 0.934082 0.343475 1.24658 0.343475H5.46533C5.70839 0.343475 5.9254 0.426114 6.11637 0.591392C6.30735 0.75667 6.42019 0.951809 6.45492 1.17681L7.132 4.82264C7.16672 5.10042 7.15804 5.33479 7.10596 5.52577C7.05387 5.71674 6.95839 5.88167 6.8195 6.02056L4.29346 8.57264C4.64068 9.215 5.05283 9.83549 5.52991 10.4341C6.007 11.0327 6.53235 11.6101 7.10596 12.1664C7.64415 12.7046 8.20839 13.2039 8.79867 13.6643C9.38894 14.1247 10.0139 14.5456 10.6737 14.9268L13.1216 12.4789C13.2778 12.3226 13.482 12.2053 13.7341 12.1268C13.9862 12.0483 14.2334 12.0268 14.4757 12.0622L18.0695 12.7914C18.3126 12.8608 18.5122 12.9869 18.6685 13.1695C18.8247 13.3522 18.9028 13.556 18.9028 13.781V17.9997C18.9028 18.3122 18.7987 18.5726 18.5903 18.781C18.382 18.9893 18.1216 19.0935 17.8091 19.0935Z" fill="#EAF9FF"/>
</svg>
