<svg width="21" height="22" viewBox="0 0 21 22" fill="none" xmlns="http://www.w3.org/2000/svg">
<path d="M16.1482 15.4163L20.4312 19.6983L19.0162 21.1133L14.7342 16.8303C13.1409 18.1075 11.1592 18.8022 9.11719 18.7993C4.14919 18.7993 0.117188 14.7673 0.117188 9.79926C0.117188 4.83126 4.14919 0.799255 9.11719 0.799255C14.0852 0.799255 18.1172 4.83126 18.1172 9.79926C18.1201 11.8413 17.4254 13.823 16.1482 15.4163ZM14.1422 14.6743C15.4113 13.3691 16.1201 11.6197 16.1172 9.79926C16.1172 5.93226 12.9842 2.79926 9.11719 2.79926C5.25019 2.79926 2.11719 5.93226 2.11719 9.79926C2.11719 13.6663 5.25019 16.7993 9.11719 16.7993C10.9376 16.8021 12.6871 16.0934 13.9922 14.8243L14.1422 14.6743Z" fill="#EAF9FF"/>
</svg>
