<svg width="19" height="20" viewBox="0 0 19 20" fill="none" xmlns="http://www.w3.org/2000/svg">
<path d="M17.8091 19.0935C15.639 19.0935 13.4949 18.6202 11.3769 17.6737C9.25879 16.7272 7.33171 15.3862 5.5956 13.6508C3.85949 11.9147 2.51852 9.98757 1.57268 7.86952C0.626851 5.75146 0.153588 3.60736 0.152893 1.43723C0.152893 1.12473 0.25706 0.864309 0.465393 0.655975C0.673726 0.447642 0.934143 0.343475 1.24664 0.343475H5.46539C5.70845 0.343475 5.92546 0.426114 6.11644 0.591392C6.30741 0.75667 6.42025 0.951809 6.45498 1.17681L7.13206 4.82264C7.16678 5.10042 7.1581 5.33479 7.10602 5.52577C7.05393 5.71674 6.95845 5.88167 6.81956 6.02056L4.29352 8.57264C4.64074 9.215 5.05289 9.83549 5.52998 10.4341C6.00706 11.0327 6.53241 11.6101 7.10602 12.1664C7.64421 12.7046 8.20845 13.2039 8.79873 13.6643C9.389 14.1247 10.014 14.5456 10.6737 14.9268L13.1216 12.4789C13.2779 12.3226 13.4821 12.2053 13.7341 12.1268C13.9862 12.0483 14.2334 12.0268 14.4758 12.0622L18.0696 12.7914C18.3126 12.8608 18.5123 12.9869 18.6685 13.1695C18.8248 13.3522 18.9029 13.556 18.9029 13.781V17.9997C18.9029 18.3122 18.7987 18.5726 18.5904 18.781C18.3821 18.9893 18.1216 19.0935 17.8091 19.0935Z" fill="#EAF9FF"/>
</svg>
