<svg width="182" height="51" viewBox="0 0 182 51" fill="none" xmlns="http://www.w3.org/2000/svg">
<path d="M37.3183 42.3262C35.1841 44.3053 32.8538 43.9928 30.6107 43.0553C28.2369 42.097 26.0591 42.0553 23.5546 43.0553C20.4186 44.347 18.7634 43.972 16.8905 42.3262C6.26282 31.847 7.83084 15.8887 19.8959 15.3053C22.8359 15.4512 24.8831 16.847 26.6035 16.972C29.1733 16.472 31.6343 15.0345 34.3783 15.222C37.6668 15.472 40.1495 16.722 41.7828 18.972C34.9881 22.8678 36.5996 31.4303 42.8282 33.8262C41.5868 36.9512 39.9752 40.0553 37.2965 42.347L37.3183 42.3262ZM26.3857 15.1803C26.0591 10.5345 30.0009 6.70117 34.5307 6.32617C35.1623 11.7012 29.4347 15.7012 26.3857 15.1803Z" fill="#080808"/>
<path d="M76.501 33.7562H65.381L63.541 39.0762H57.661L67.701 11.1162H74.221L84.261 39.0762H78.341L76.501 33.7562ZM74.981 29.2762L70.941 17.5962L66.901 29.2762H74.981ZM93.6138 20.1162C94.3338 19.1028 95.3205 18.2628 96.5738 17.5962C97.8538 16.9028 99.3071 16.5562 100.934 16.5562C102.827 16.5562 104.534 17.0228 106.054 17.9562C107.6 18.8895 108.814 20.2228 109.694 21.9562C110.6 23.6628 111.054 25.6495 111.054 27.9162C111.054 30.1828 110.6 32.1962 109.694 33.9562C108.814 35.6895 107.6 37.0362 106.054 37.9962C104.534 38.9562 102.827 39.4362 100.934 39.4362C99.3071 39.4362 97.8671 39.1028 96.6138 38.4362C95.3871 37.7695 94.3871 36.9295 93.6138 35.9162V49.6362H88.0138V16.9162H93.6138V20.1162ZM105.334 27.9162C105.334 26.5828 105.054 25.4362 104.494 24.4762C103.96 23.4895 103.24 22.7428 102.334 22.2362C101.454 21.7295 100.494 21.4762 99.4538 21.4762C98.4405 21.4762 97.4805 21.7428 96.5738 22.2762C95.6938 22.7828 94.9738 23.5295 94.4138 24.5162C93.8805 25.5028 93.6138 26.6628 93.6138 27.9962C93.6138 29.3295 93.8805 30.4895 94.4138 31.4762C94.9738 32.4628 95.6938 33.2228 96.5738 33.7562C97.4805 34.2628 98.4405 34.5162 99.4538 34.5162C100.494 34.5162 101.454 34.2495 102.334 33.7162C103.24 33.1828 103.96 32.4228 104.494 31.4362C105.054 30.4495 105.334 29.2762 105.334 27.9162ZM120.723 20.1162C121.443 19.1028 122.43 18.2628 123.683 17.5962C124.963 16.9028 126.417 16.5562 128.043 16.5562C129.937 16.5562 131.643 17.0228 133.163 17.9562C134.71 18.8895 135.923 20.2228 136.803 21.9562C137.71 23.6628 138.163 25.6495 138.163 27.9162C138.163 30.1828 137.71 32.1962 136.803 33.9562C135.923 35.6895 134.71 37.0362 133.163 37.9962C131.643 38.9562 129.937 39.4362 128.043 39.4362C126.417 39.4362 124.977 39.1028 123.723 38.4362C122.497 37.7695 121.497 36.9295 120.723 35.9162V49.6362H115.123V16.9162H120.723V20.1162ZM132.443 27.9162C132.443 26.5828 132.163 25.4362 131.603 24.4762C131.07 23.4895 130.35 22.7428 129.443 22.2362C128.563 21.7295 127.603 21.4762 126.563 21.4762C125.55 21.4762 124.59 21.7428 123.683 22.2762C122.803 22.7828 122.083 23.5295 121.523 24.5162C120.99 25.5028 120.723 26.6628 120.723 27.9962C120.723 29.3295 120.99 30.4895 121.523 31.4762C122.083 32.4628 122.803 33.2228 123.683 33.7562C124.59 34.2628 125.55 34.5162 126.563 34.5162C127.603 34.5162 128.563 34.2495 129.443 33.7162C130.35 33.1828 131.07 32.4228 131.603 31.4362C132.163 30.4495 132.443 29.2762 132.443 27.9162ZM147.833 9.47617V39.0762H142.233V9.47617H147.833ZM173.965 27.5162C173.965 28.3162 173.912 29.0362 173.805 29.6762H157.605C157.739 31.2762 158.299 32.5295 159.285 33.4362C160.272 34.3428 161.485 34.7962 162.925 34.7962C165.005 34.7962 166.485 33.9028 167.365 32.1162H173.405C172.765 34.2495 171.539 36.0095 169.725 37.3962C167.912 38.7562 165.685 39.4362 163.045 39.4362C160.912 39.4362 158.992 38.9695 157.285 38.0362C155.605 37.0762 154.285 35.7295 153.325 33.9962C152.392 32.2628 151.925 30.2628 151.925 27.9962C151.925 25.7028 152.392 23.6895 153.325 21.9562C154.259 20.2228 155.565 18.8895 157.245 17.9562C158.925 17.0228 160.859 16.5562 163.045 16.5562C165.152 16.5562 167.032 17.0095 168.685 17.9162C170.365 18.8228 171.659 20.1162 172.565 21.7962C173.499 23.4495 173.965 25.3562 173.965 27.5162ZM168.165 25.9162C168.139 24.4762 167.619 23.3295 166.605 22.4762C165.592 21.5962 164.352 21.1562 162.885 21.1562C161.499 21.1562 160.325 21.5828 159.365 22.4362C158.432 23.2628 157.859 24.4228 157.645 25.9162H168.165Z" fill="black"/>
</svg>
