<svg width="53" height="51" viewBox="0 0 53 51" fill="none" xmlns="http://www.w3.org/2000/svg">
<g clip-path="url(#clip0_203_187)">
<path d="M39.3844 30.5736V19.5799H42.0386V28.3361H46.7002V30.5658H39.3844V30.5736ZM18.0741 23.7205L24.565 18.9439C25.1775 19.4158 25.7819 19.8955 26.3944 20.3768L20.235 24.8361L21.5711 25.9518L27.7223 21.3299L29.5598 22.7705C27.5181 24.3174 25.4601 25.8549 23.4004 27.3846L24.7284 28.5002L30.8959 23.7236L30.8877 19.5814H33.5501V28.3377H38.3816V30.5674H31.0576V26.433C28.8885 28.0205 26.7276 29.6143 24.5667 31.2018L18.0757 26.433C17.7605 27.9471 16.6547 29.2658 15.2173 29.9564C14.5967 30.2658 13.9156 30.4611 13.2263 30.5346C12.8261 30.583 12.4259 30.5674 12.0274 30.5674H7.91788V19.5814H12.6562C13.8894 19.5971 15.0899 20.0049 16.0585 20.7455C17.0458 21.5066 17.7522 22.5504 18.0741 23.7236V23.7205ZM10.4185 21.808V28.4971H12.4945C12.9303 28.4818 13.3574 28.3764 13.7465 28.1882C14.1357 27.9999 14.4775 27.7332 14.7486 27.4064C15.2058 26.857 15.487 26.1926 15.558 25.4936C15.629 24.7945 15.4868 24.0908 15.1487 23.4674C14.9335 23.0719 14.6324 22.725 14.2657 22.4498C13.8989 22.1747 13.4749 21.9777 13.0221 21.8721C12.6562 21.7908 12.2822 21.8064 11.9163 21.8064L10.4185 21.808ZM26.0024 0.15332H26.7341C30.8436 0.201758 34.8748 1.18613 38.5073 3.00957C42.0517 4.79597 45.124 7.33151 47.4908 10.4236C50.6892 14.5916 52.4494 19.61 52.5264 24.7799V25.5283C52.443 31.7537 49.9304 37.7245 45.4818 42.2689C43.0807 44.7181 40.1879 46.6787 36.9765 48.0337C33.765 49.3887 30.3009 50.1101 26.7913 50.1549H26.0007C22.912 50.1126 19.8557 49.5449 16.9748 48.4783C13.3452 47.1233 10.0752 45.0145 7.40065 42.3041C4.72611 39.5938 2.71371 36.3493 1.5086 32.8049C0.719437 30.452 0.297839 28.0006 0.257446 25.5299V24.7814C0.342381 20.0377 1.84833 15.4064 4.59564 11.4596C7.15893 7.75133 10.6971 4.75357 14.8547 2.76738C18.317 1.10631 22.1263 0.213339 25.9991 0.154883L26.0024 0.15332ZM25.6708 2.71738C20.5628 2.85616 15.6436 4.59457 11.6681 7.66582C8.41283 10.169 5.91635 13.4591 4.4372 17.1955C2.28652 22.6722 2.43578 28.7327 4.85371 34.1064C6.52624 37.7797 9.19257 40.9598 12.5778 43.3189C15.6517 45.4665 19.2303 46.8584 22.9986 47.3721C26.1722 47.8111 29.439 47.633 32.5358 46.8346C36.7698 45.739 40.5976 43.5293 43.5843 40.4565C46.571 37.3836 48.5967 33.571 49.4312 29.4518C50.0845 26.222 49.9948 22.895 49.1682 19.7018C48.208 16.0177 46.2861 12.6271 43.5825 9.84728C40.8789 7.06751 37.4821 4.98956 33.7102 3.80801C31.1171 2.99994 28.3965 2.63086 25.6708 2.71738Z" fill="#007FBF"/>
</g>
<defs>
<clipPath id="clip0_203_187">
<rect width="52.2673" height="50" fill="white" transform="translate(0.260559 0.15332)"/>
</clipPath>
</defs>
</svg>
