<svg width="19" height="19" viewBox="0 0 19 19" fill="none" xmlns="http://www.w3.org/2000/svg">
<g clip-path="url(#clip0_200_22)">
<path d="M16.8364 3.16656H14.8704V4.7499C14.8704 4.90238 14.8424 5.05336 14.7881 5.19424C14.7338 5.33511 14.6541 5.46311 14.5537 5.57093C14.4533 5.67875 14.3341 5.76427 14.2029 5.82262C14.0717 5.88098 13.9311 5.91101 13.7891 5.91101C13.6471 5.91101 13.5065 5.88098 13.3753 5.82262C13.2441 5.76427 13.1249 5.67875 13.0245 5.57093C12.9241 5.46311 12.8445 5.33511 12.7901 5.19424C12.7358 5.05336 12.7078 4.90238 12.7078 4.7499V3.16656H6.98188V4.7499C6.98188 5.05784 6.86796 5.35318 6.66518 5.57093C6.4624 5.78868 6.18737 5.91101 5.90059 5.91101C5.61382 5.91101 5.33878 5.78868 5.136 5.57093C4.93322 5.35318 4.8193 5.05784 4.8193 4.7499V3.16656H2.85331C2.73635 3.16514 2.6203 3.18891 2.51204 3.23648C2.40378 3.28404 2.3055 3.35444 2.22302 3.4435C2.14054 3.53257 2.07553 3.63849 2.03183 3.755C1.98813 3.87151 1.96664 3.99625 1.96862 4.12184V15.9335C1.96666 16.0569 1.98736 16.1795 2.02954 16.2942C2.07171 16.409 2.13452 16.5138 2.2144 16.6025C2.29427 16.6912 2.38963 16.7621 2.49504 16.8113C2.60045 16.8604 2.71384 16.8867 2.82874 16.8888H16.8364C16.9513 16.8867 17.0647 16.8604 17.1701 16.8113C17.2755 16.7621 17.3709 16.6912 17.4507 16.6025C17.5306 16.5138 17.5934 16.409 17.6356 16.2942C17.6778 16.1795 17.6985 16.0569 17.6965 15.9335V4.12184C17.6985 3.99847 17.6778 3.87589 17.6356 3.76111C17.5934 3.64633 17.5306 3.54159 17.4507 3.45288C17.3709 3.36417 17.2755 3.29323 17.1701 3.2441C17.0647 3.19497 16.9513 3.16863 16.8364 3.16656ZM5.90059 13.7221H4.9176V12.6666H5.90059V13.7221ZM5.90059 11.0832H4.9176V10.0277H5.90059V11.0832ZM5.90059 8.44434H4.9176V7.38879H5.90059V8.44434ZM8.84957 13.7221H7.86658V12.6666H8.84957V13.7221ZM8.84957 11.0832H7.86658V10.0277H8.84957V11.0832ZM8.84957 8.44434H7.86658V7.38879H8.84957V8.44434ZM11.7986 13.7221H10.8156V12.6666H11.7986V13.7221ZM11.7986 11.0832H10.8156V10.0277H11.7986V11.0832ZM11.7986 8.44434H10.8156V7.38879H11.7986V8.44434ZM14.7475 13.7221H13.7645V12.6666H14.7475V13.7221ZM14.7475 11.0832H13.7645V10.0277H14.7475V11.0832ZM14.7475 8.44434H13.7645V7.38879H14.7475V8.44434Z" fill="#007FBF"/>
<path d="M5.9006 5.27789C6.03095 5.27789 6.15597 5.22228 6.24814 5.1233C6.34031 5.02433 6.3921 4.89008 6.3921 4.75011V1.58344C6.3921 1.44347 6.34031 1.30922 6.24814 1.21025C6.15597 1.11127 6.03095 1.05566 5.9006 1.05566C5.77025 1.05566 5.64523 1.11127 5.55306 1.21025C5.46089 1.30922 5.4091 1.44347 5.4091 1.58344V4.75011C5.4091 4.89008 5.46089 5.02433 5.55306 5.1233C5.64523 5.22228 5.77025 5.27789 5.9006 5.27789Z" fill="#007FBF"/>
<path d="M13.7645 5.27789C13.8949 5.27789 14.0199 5.22228 14.1121 5.1233C14.2043 5.02433 14.256 4.89008 14.256 4.75011V1.58344C14.256 1.44347 14.2043 1.30922 14.1121 1.21025C14.0199 1.11127 13.8949 1.05566 13.7645 1.05566C13.6342 1.05566 13.5092 1.11127 13.417 1.21025C13.3248 1.30922 13.273 1.44347 13.273 1.58344V4.75011C13.273 4.89008 13.3248 5.02433 13.417 5.1233C13.5092 5.22228 13.6342 5.27789 13.7645 5.27789Z" fill="#007FBF"/>
</g>
<defs>
<clipPath id="clip0_200_22">
<rect width="17.6939" height="19" fill="white" transform="translate(0.985626)"/>
</clipPath>
</defs>
</svg>
