<svg width="33" height="36" viewBox="0 0 33 36" fill="none" xmlns="http://www.w3.org/2000/svg">
<path d="M16.5399 13.4888L14.3343 15.653C14.6238 16.7451 15.0312 17.7957 15.5478 18.7825C16.0854 19.7626 16.7323 20.6659 17.4734 21.4717L20.3298 20.5092C21.93 19.9696 23.6769 20.5238 24.741 21.9092L26.3679 24.0267C27.0266 24.8768 27.3568 25.9739 27.2886 27.0856C27.2204 28.1973 26.7591 29.2363 26.0025 29.9826C23.3488 32.6309 19.2629 33.5263 16.2039 30.8984C13.5153 28.5833 11.2405 25.7455 9.49364 22.5275C7.74296 19.3247 6.57135 15.7839 6.04252 12.0975C5.45577 7.95005 8.23214 4.63088 11.6939 3.49922C13.7582 2.82255 15.9612 3.98338 16.7186 6.14755L17.6121 8.69963C18.1988 10.3796 17.7774 12.2755 16.5399 13.4888Z" fill="#EAF9FF"/>
</svg>
