<svg width="170" height="61" viewBox="0 0 170 61" fill="none" xmlns="http://www.w3.org/2000/svg">
<path d="M46.5261 34.7471C48.2767 34.7471 49.9556 35.4244 51.1934 36.63C52.4313 37.8355 53.1267 39.4707 53.1267 41.1756V42.7078C53.1267 50.3728 43.8639 56.1756 31.1249 56.1756C18.3858 56.1756 9.12305 50.6749 9.12305 42.7078V41.1756C9.12305 39.4707 9.81846 37.8355 11.0563 36.63C12.2941 35.4244 13.973 34.7471 15.7236 34.7471H46.5261ZM31.1249 4.74707C32.8585 4.74707 34.5751 5.07963 36.1767 5.72576C37.7783 6.37189 39.2336 7.31894 40.4595 8.51284C41.6853 9.70674 42.6577 11.1241 43.3211 12.684C43.9845 14.2439 44.326 15.9158 44.326 17.6042C44.326 19.2926 43.9845 20.9645 43.3211 22.5244C42.6577 24.0843 41.6853 25.5017 40.4595 26.6956C39.2336 27.8895 37.7783 28.8365 36.1767 29.4827C34.5751 30.1288 32.8585 30.4614 31.1249 30.4614C27.6237 30.4614 24.266 29.1068 21.7903 26.6956C19.3146 24.2844 17.9238 21.0141 17.9238 17.6042C17.9238 14.1943 19.3146 10.924 21.7903 8.51284C24.266 6.10166 27.6237 4.74707 31.1249 4.74707Z" fill="#EAF9FF"/>
<path d="M69.7774 18.8814H74.1274V40.9614H69.7774V18.8814ZM82.9463 27.8514L83.2463 29.9514C83.7063 29.1314 84.3563 28.4714 85.1963 27.9714C86.0363 27.4714 87.0563 27.2214 88.2563 27.2214C89.4963 27.2214 90.5263 27.5914 91.3463 28.3314C92.1863 29.0514 92.6163 29.9914 92.6363 31.1514V40.9614H88.4363V32.7114C88.4163 32.1314 88.2563 31.6714 87.9563 31.3314C87.6763 30.9714 87.1963 30.7914 86.5163 30.7914C85.5363 30.7914 84.7563 31.2514 84.1763 32.1714C83.6163 33.0714 83.3363 34.2214 83.3363 35.6214V40.9614H79.1363V27.8514H82.9463ZM98.2088 40.9614V31.5114H95.9888V27.7914H98.2088V23.2314C98.2088 21.5114 98.6988 20.1114 99.6788 19.0314C100.679 17.9314 102.119 17.3814 103.999 17.3814C104.559 17.3814 105.179 17.4714 105.859 17.6514C106.559 17.8114 107.169 18.0814 107.689 18.4614L105.919 21.4914C105.719 21.2314 105.479 21.0614 105.199 20.9814C104.939 20.8814 104.689 20.8314 104.449 20.8314C103.849 20.8314 103.359 21.0314 102.979 21.4314C102.599 21.8314 102.409 22.4714 102.409 23.3514V27.7914H106.369V31.5114H102.409V40.9614H98.2088ZM108.058 34.2414C108.058 32.9014 108.368 31.7014 108.988 30.6414C109.628 29.5814 110.518 28.7514 111.658 28.1514C112.798 27.5314 114.108 27.2214 115.588 27.2214C117.088 27.2214 118.388 27.5314 119.488 28.1514C120.588 28.7514 121.428 29.5814 122.008 30.6414C122.608 31.7014 122.908 32.9014 122.908 34.2414C122.908 35.5814 122.608 36.7914 122.008 37.8714C121.428 38.9314 120.588 39.7714 119.488 40.3914C118.388 41.0114 117.068 41.3214 115.528 41.3214C114.088 41.3214 112.798 41.0414 111.658 40.4814C110.538 39.9214 109.658 39.1114 109.018 38.0514C108.378 36.9914 108.058 35.7214 108.058 34.2414ZM112.288 34.2714C112.288 35.3114 112.588 36.1814 113.188 36.8814C113.788 37.5614 114.548 37.9014 115.468 37.9014C116.448 37.9014 117.228 37.5614 117.808 36.8814C118.388 36.1814 118.678 35.3114 118.678 34.2714C118.678 33.2314 118.388 32.3714 117.808 31.6914C117.228 30.9914 116.448 30.6414 115.468 30.6414C114.548 30.6414 113.788 30.9914 113.188 31.6914C112.588 32.3714 112.288 33.2314 112.288 34.2714ZM130.476 41.2314C129.396 41.2314 128.386 41.0414 127.446 40.6614C126.526 40.2814 125.746 39.7514 125.106 39.0714L126.846 36.7614C127.486 37.3414 128.076 37.7614 128.616 38.0214C129.176 38.2614 129.676 38.3814 130.116 38.3814C130.636 38.3814 131.066 38.3014 131.406 38.1414C131.746 37.9814 131.916 37.7214 131.916 37.3614C131.916 37.0214 131.776 36.7514 131.496 36.5514C131.236 36.3514 130.896 36.1914 130.476 36.0714C130.056 35.9314 129.606 35.7914 129.126 35.6514C127.926 35.2714 127.056 34.7214 126.516 34.0014C125.996 33.2614 125.736 32.4614 125.736 31.6014C125.736 30.9414 125.906 30.2814 126.246 29.6214C126.606 28.9414 127.166 28.3814 127.926 27.9414C128.706 27.4814 129.706 27.2514 130.926 27.2514C132.026 27.2514 132.956 27.3614 133.716 27.5814C134.476 27.8014 135.196 28.1614 135.876 28.6614L134.286 31.1214C133.906 30.8214 133.476 30.5714 132.996 30.3714C132.536 30.1514 132.106 30.0314 131.706 30.0114C131.166 29.9914 130.746 30.0914 130.446 30.3114C130.146 30.5114 129.996 30.7514 129.996 31.0314C129.976 31.5114 130.196 31.8614 130.656 32.0814C131.136 32.2814 131.666 32.4614 132.246 32.6214C132.386 32.6614 132.516 32.7014 132.636 32.7414C132.776 32.7814 132.906 32.8214 133.026 32.8614C133.966 33.1814 134.716 33.6414 135.276 34.2414C135.836 34.8214 136.116 35.6014 136.116 36.5814C136.116 37.3814 135.906 38.1414 135.486 38.8614C135.086 39.5614 134.466 40.1314 133.626 40.5714C132.806 41.0114 131.756 41.2314 130.476 41.2314ZM140.684 47.2614L143.834 40.2714L137.774 27.8514H142.484L145.934 35.5914L149.414 27.8514H153.194L144.734 47.2614H140.684ZM159.92 41.2314C158.84 41.2314 157.83 41.0414 156.89 40.6614C155.97 40.2814 155.19 39.7514 154.55 39.0714L156.29 36.7614C156.93 37.3414 157.52 37.7614 158.06 38.0214C158.62 38.2614 159.12 38.3814 159.56 38.3814C160.08 38.3814 160.51 38.3014 160.85 38.1414C161.19 37.9814 161.36 37.7214 161.36 37.3614C161.36 37.0214 161.22 36.7514 160.94 36.5514C160.68 36.3514 160.34 36.1914 159.92 36.0714C159.5 35.9314 159.05 35.7914 158.57 35.6514C157.37 35.2714 156.5 34.7214 155.96 34.0014C155.44 33.2614 155.18 32.4614 155.18 31.6014C155.18 30.9414 155.35 30.2814 155.69 29.6214C156.05 28.9414 156.61 28.3814 157.37 27.9414C158.15 27.4814 159.15 27.2514 160.37 27.2514C161.47 27.2514 162.4 27.3614 163.16 27.5814C163.92 27.8014 164.64 28.1614 165.32 28.6614L163.73 31.1214C163.35 30.8214 162.92 30.5714 162.44 30.3714C161.98 30.1514 161.55 30.0314 161.15 30.0114C160.61 29.9914 160.19 30.0914 159.89 30.3114C159.59 30.5114 159.44 30.7514 159.44 31.0314C159.42 31.5114 159.64 31.8614 160.1 32.0814C160.58 32.2814 161.11 32.4614 161.69 32.6214C161.83 32.6614 161.96 32.7014 162.08 32.7414C162.22 32.7814 162.35 32.8214 162.47 32.8614C163.41 33.1814 164.16 33.6414 164.72 34.2414C165.28 34.8214 165.56 35.6014 165.56 36.5814C165.56 37.3814 165.35 38.1414 164.93 38.8614C164.53 39.5614 163.91 40.1314 163.07 40.5714C162.25 41.0114 161.2 41.2314 159.92 41.2314Z" fill="#EAF9FF"/>
</svg>
