<svg width="26" height="26" viewBox="0 0 26 26" fill="none" xmlns="http://www.w3.org/2000/svg">
<path d="M20.8091 22.0935C18.639 22.0935 16.4949 21.6202 14.3769 20.6737C12.2588 19.7272 10.3317 18.3862 8.5956 16.6508C6.85949 14.9147 5.51852 12.9876 4.57268 10.8695C3.62685 8.75146 3.15359 6.60736 3.15289 4.43723C3.15289 4.12473 3.25706 3.86431 3.46539 3.65598C3.67373 3.44764 3.93414 3.34348 4.24664 3.34348H8.46539C8.70845 3.34348 8.92546 3.42611 9.11644 3.59139C9.30741 3.75667 9.42025 3.95181 9.45498 4.17681L10.1321 7.82264C10.1668 8.10042 10.1581 8.33479 10.106 8.52577C10.0539 8.71674 9.95845 8.88167 9.81956 9.02056L7.29352 11.5726C7.64074 12.215 8.05289 12.8355 8.52998 13.4341C9.00706 14.0327 9.53241 14.6101 10.106 15.1664C10.6442 15.7046 11.2084 16.2039 11.7987 16.6643C12.389 17.1247 13.014 17.5456 13.6737 17.9268L16.1216 15.4789C16.2779 15.3226 16.4821 15.2053 16.7341 15.1268C16.9862 15.0483 17.2334 15.0268 17.4758 15.0622L21.0696 15.7914C21.3126 15.8608 21.5123 15.9869 21.6685 16.1695C21.8248 16.3522 21.9029 16.556 21.9029 16.781V20.9997C21.9029 21.3122 21.7987 21.5726 21.5904 21.781C21.3821 21.9893 21.1216 22.0935 20.8091 22.0935Z" fill="#EAF9FF"/>
</svg>
