<svg width="20" height="21" viewBox="0 0 20 21" fill="none" xmlns="http://www.w3.org/2000/svg">
<path d="M10.0178 10.548C9.10773 10.548 8.32863 10.2293 7.68053 9.59189C7.03243 8.95446 6.70838 8.18818 6.70838 7.29306C6.70838 6.39794 7.03243 5.63167 7.68053 4.99424C8.32863 4.3568 9.10773 4.03809 10.0178 4.03809C10.9279 4.03809 11.707 4.3568 12.3551 4.99424C13.0032 5.63167 13.3273 6.39794 13.3273 7.29306C13.3273 8.18818 13.0032 8.95446 12.3551 9.59189C11.707 10.2293 10.9279 10.548 10.0178 10.548ZM3.39893 17.058V14.7795C3.39893 14.3184 3.51972 13.8944 3.76131 13.5076C4.0029 13.1208 4.32337 12.826 4.72271 12.6231C5.57765 12.2027 6.44638 11.8872 7.3289 11.6767C8.21142 11.4662 9.10773 11.3612 10.0178 11.3618C10.9279 11.3618 11.8242 11.467 12.7068 11.6775C13.5893 11.888 14.458 12.2032 15.313 12.6231C15.7128 12.8265 16.0336 13.1216 16.2752 13.5084C16.5168 13.8952 16.6373 14.3189 16.6367 14.7795V17.058H3.39893ZM5.05365 15.4305H14.982V14.7795C14.982 14.6303 14.9439 14.4947 14.8678 14.3726C14.7917 14.2506 14.6919 14.1556 14.5683 14.0878C13.8237 13.7216 13.0722 13.4471 12.3138 13.2643C11.5553 13.0815 10.79 12.9898 10.0178 12.9893C9.24562 12.9893 8.48031 13.081 7.7219 13.2643C6.96348 13.4477 6.21196 13.7222 5.46733 14.0878C5.34323 14.1556 5.24312 14.2506 5.167 14.3726C5.09088 14.4947 5.0531 14.6303 5.05365 14.7795V15.4305ZM10.0178 8.92055C10.4729 8.92055 10.8626 8.76106 11.1869 8.44207C11.5112 8.12308 11.6731 7.74008 11.6726 7.29306C11.6726 6.8455 11.5104 6.46223 11.1861 6.14324C10.8617 5.82425 10.4723 5.66503 10.0178 5.66557C9.56278 5.66557 9.17309 5.82507 8.84876 6.14406C8.52444 6.46304 8.36255 6.84605 8.3631 7.29306C8.3631 7.74062 8.52527 8.12389 8.84959 8.44288C9.17392 8.76187 9.56333 8.92109 10.0178 8.92055Z" fill="#007FBF"/>
</svg>
