<svg width="16" height="16" viewBox="0 0 16 16" fill="none" xmlns="http://www.w3.org/2000/svg">
<path d="M14.5654 4.68736C14.0842 4.90611 13.5654 5.04986 13.0279 5.11861C13.5779 4.78736 14.0029 4.26236 14.2029 3.63111C13.6842 3.94361 13.1092 4.16236 12.5029 4.28736C12.0092 3.74986 11.3154 3.43736 10.5279 3.43736C9.05917 3.43736 7.85917 4.63736 7.85917 6.11861C7.85917 6.33111 7.88417 6.53736 7.92792 6.73111C5.70292 6.61861 3.72167 5.54986 2.40292 3.93111C2.17167 4.32486 2.04042 4.78736 2.04042 5.27486C2.04042 6.20611 2.50917 7.03111 3.23417 7.49986C2.79042 7.49986 2.37792 7.37486 2.01542 7.18736V7.20611C2.01542 8.50611 2.94042 9.59361 4.16542 9.83736C3.77212 9.94499 3.35923 9.95997 2.95917 9.88111C3.12892 10.4139 3.46138 10.8801 3.9098 11.2142C4.35823 11.5483 4.90007 11.7334 5.45917 11.7436C4.51144 12.4939 3.33667 12.8994 2.12792 12.8936C1.91542 12.8936 1.70292 12.8811 1.49042 12.8561C2.67792 13.6186 4.09042 14.0624 5.60292 14.0624C10.5279 14.0624 13.2342 9.97486 13.2342 6.43111C13.2342 6.31236 13.2342 6.19986 13.2279 6.08111C13.7529 5.70611 14.2029 5.23111 14.5654 4.68736Z" fill="#EAF9FF"/>
</svg>
