<svg width="21" height="21" viewBox="0 0 21 21" fill="none" xmlns="http://www.w3.org/2000/svg">
<path d="M10.0279 10.3018C9.47535 10.3018 8.94544 10.0823 8.55474 9.69161C8.16404 9.30091 7.94455 8.77101 7.94455 8.21847C7.94455 7.66594 8.16404 7.13603 8.55474 6.74533C8.94544 6.35463 9.47535 6.13514 10.0279 6.13514C10.5804 6.13514 11.1103 6.35463 11.501 6.74533C11.8917 7.13603 12.1112 7.66594 12.1112 8.21847C12.1112 8.49206 12.0573 8.76297 11.9526 9.01573C11.8479 9.26849 11.6945 9.49816 11.501 9.69161C11.3076 9.88507 11.0779 10.0385 10.8251 10.1432C10.5724 10.2479 10.3015 10.3018 10.0279 10.3018ZM10.0279 2.38514C8.48079 2.38514 6.99706 2.99972 5.90309 4.09368C4.80913 5.18765 4.19455 6.67138 4.19455 8.21847C4.19455 12.5935 10.0279 19.0518 10.0279 19.0518C10.0279 19.0518 15.8612 12.5935 15.8612 8.21847C15.8612 6.67138 15.2466 5.18765 14.1527 4.09368C13.0587 2.99972 11.575 2.38514 10.0279 2.38514Z" fill="#EAF9FF"/>
</svg>
