<svg width="201" height="42" viewBox="0 0 201 42" fill="none" xmlns="http://www.w3.org/2000/svg">
<rect x="0.738068" y="0.230469" width="19.0418" height="19.1287" fill="#FF5002"/>
<rect x="0.738068" y="22.7925" width="19.0418" height="19.1287" fill="#00A4FF"/>
<rect x="22.4819" y="0.230469" width="19.0418" height="19.1287" fill="#41BA0A"/>
<rect x="22.4819" y="22.7925" width="19.0418" height="19.1287" fill="#FAB900"/>
<path d="M76.4002 10.6362V31.5762H72.2002V17.9562L66.5902 31.5762H63.4102L57.7702 17.9562V31.5762H53.5702V10.6362H58.3402L65.0002 26.2062L71.6602 10.6362H76.4002ZM82.6826 12.9762C81.9426 12.9762 81.3226 12.7462 80.8226 12.2862C80.3426 11.8062 80.1026 11.2162 80.1026 10.5162C80.1026 9.81617 80.3426 9.23617 80.8226 8.77617C81.3226 8.29617 81.9426 8.05617 82.6826 8.05617C83.4226 8.05617 84.0326 8.29617 84.5126 8.77617C85.0126 9.23617 85.2626 9.81617 85.2626 10.5162C85.2626 11.2162 85.0126 11.8062 84.5126 12.2862C84.0326 12.7462 83.4226 12.9762 82.6826 12.9762ZM84.7526 14.9562V31.5762H80.5526V14.9562H84.7526ZM87.8222 23.2662C87.8222 21.5462 88.1722 20.0462 88.8722 18.7662C89.5722 17.4662 90.5422 16.4662 91.7822 15.7662C93.0222 15.0462 94.4422 14.6862 96.0422 14.6862C98.1022 14.6862 99.8022 15.2062 101.142 16.2462C102.502 17.2662 103.412 18.7062 103.872 20.5662H99.3422C99.1022 19.8462 98.6922 19.2862 98.1122 18.8862C97.5522 18.4662 96.8522 18.2562 96.0122 18.2562C94.8122 18.2562 93.8622 18.6962 93.1622 19.5762C92.4622 20.4362 92.1122 21.6662 92.1122 23.2662C92.1122 24.8462 92.4622 26.0762 93.1622 26.9562C93.8622 27.8162 94.8122 28.2462 96.0122 28.2462C97.7122 28.2462 98.8222 27.4862 99.3422 25.9662H103.872C103.412 27.7662 102.502 29.1962 101.142 30.2562C99.7822 31.3162 98.0822 31.8462 96.0422 31.8462C94.4422 31.8462 93.0222 31.4962 91.7822 30.7962C90.5422 30.0762 89.5722 29.0762 88.8722 27.7962C88.1722 26.4962 87.8222 24.9862 87.8222 23.2662ZM111.149 17.5362C111.689 16.6562 112.389 15.9662 113.249 15.4662C114.129 14.9662 115.129 14.7162 116.249 14.7162V19.1262H115.139C113.819 19.1262 112.819 19.4362 112.139 20.0562C111.479 20.6762 111.149 21.7562 111.149 23.2962V31.5762H106.949V14.9562H111.149V17.5362ZM126.458 31.8462C124.858 31.8462 123.418 31.4962 122.138 30.7962C120.858 30.0762 119.848 29.0662 119.108 27.7662C118.388 26.4662 118.028 24.9662 118.028 23.2662C118.028 21.5662 118.398 20.0662 119.138 18.7662C119.898 17.4662 120.928 16.4662 122.228 15.7662C123.528 15.0462 124.978 14.6862 126.578 14.6862C128.178 14.6862 129.628 15.0462 130.928 15.7662C132.228 16.4662 133.248 17.4662 133.988 18.7662C134.748 20.0662 135.128 21.5662 135.128 23.2662C135.128 24.9662 134.738 26.4662 133.958 27.7662C133.198 29.0662 132.158 30.0762 130.838 30.7962C129.538 31.4962 128.078 31.8462 126.458 31.8462ZM126.458 28.1862C127.218 28.1862 127.928 28.0062 128.588 27.6462C129.268 27.2662 129.808 26.7062 130.208 25.9662C130.608 25.2262 130.808 24.3262 130.808 23.2662C130.808 21.6862 130.388 20.4762 129.548 19.6362C128.728 18.7762 127.718 18.3462 126.518 18.3462C125.318 18.3462 124.308 18.7762 123.488 19.6362C122.688 20.4762 122.288 21.6862 122.288 23.2662C122.288 24.8462 122.678 26.0662 123.458 26.9262C124.258 27.7662 125.258 28.1862 126.458 28.1862ZM144.569 31.8462C143.209 31.8462 141.989 31.6062 140.909 31.1262C139.829 30.6262 138.969 29.9562 138.329 29.1162C137.709 28.2762 137.369 27.3462 137.309 26.3262H141.539C141.619 26.9662 141.929 27.4962 142.469 27.9162C143.029 28.3362 143.719 28.5462 144.539 28.5462C145.339 28.5462 145.959 28.3862 146.399 28.0662C146.859 27.7462 147.089 27.3362 147.089 26.8362C147.089 26.2962 146.809 25.8962 146.249 25.6362C145.709 25.3562 144.839 25.0562 143.639 24.7362C142.399 24.4362 141.379 24.1262 140.579 23.8062C139.799 23.4862 139.119 22.9962 138.539 22.3362C137.979 21.6762 137.699 20.7862 137.699 19.6662C137.699 18.7462 137.959 17.9062 138.479 17.1462C139.019 16.3862 139.779 15.7862 140.759 15.3462C141.759 14.9062 142.929 14.6862 144.269 14.6862C146.249 14.6862 147.829 15.1862 149.009 16.1862C150.189 17.1662 150.839 18.4962 150.959 20.1762H146.939C146.879 19.5162 146.599 18.9962 146.099 18.6162C145.619 18.2162 144.969 18.0162 144.149 18.0162C143.389 18.0162 142.799 18.1562 142.379 18.4362C141.979 18.7162 141.779 19.1062 141.779 19.6062C141.779 20.1662 142.059 20.5962 142.619 20.8962C143.179 21.1762 144.049 21.4662 145.229 21.7662C146.429 22.0662 147.419 22.3762 148.199 22.6962C148.979 23.0162 149.649 23.5162 150.209 24.1962C150.789 24.8562 151.089 25.7362 151.109 26.8362C151.109 27.7962 150.839 28.6562 150.299 29.4162C149.779 30.1762 149.019 30.7762 148.019 31.2162C147.039 31.6362 145.889 31.8462 144.569 31.8462ZM161.937 31.8462C160.337 31.8462 158.897 31.4962 157.617 30.7962C156.337 30.0762 155.327 29.0662 154.587 27.7662C153.867 26.4662 153.507 24.9662 153.507 23.2662C153.507 21.5662 153.877 20.0662 154.617 18.7662C155.377 17.4662 156.407 16.4662 157.707 15.7662C159.007 15.0462 160.457 14.6862 162.057 14.6862C163.657 14.6862 165.107 15.0462 166.407 15.7662C167.707 16.4662 168.727 17.4662 169.467 18.7662C170.227 20.0662 170.607 21.5662 170.607 23.2662C170.607 24.9662 170.217 26.4662 169.437 27.7662C168.677 29.0662 167.637 30.0762 166.317 30.7962C165.017 31.4962 163.557 31.8462 161.937 31.8462ZM161.937 28.1862C162.697 28.1862 163.407 28.0062 164.067 27.6462C164.747 27.2662 165.287 26.7062 165.687 25.9662C166.087 25.2262 166.287 24.3262 166.287 23.2662C166.287 21.6862 165.867 20.4762 165.027 19.6362C164.207 18.7762 163.197 18.3462 161.997 18.3462C160.797 18.3462 159.787 18.7762 158.967 19.6362C158.167 20.4762 157.767 21.6862 157.767 23.2662C157.767 24.8462 158.157 26.0662 158.937 26.9262C159.737 27.7662 160.737 28.1862 161.937 28.1862ZM181.307 18.4062H178.397V31.5762H174.137V18.4062H172.247V14.9562H174.137V14.1162C174.137 12.0762 174.717 10.5762 175.877 9.61617C177.037 8.65617 178.787 8.20617 181.127 8.26617V11.8062C180.107 11.7862 179.397 11.9562 178.997 12.3162C178.597 12.6762 178.397 13.3262 178.397 14.2662V14.9562H181.307V18.4062ZM188.919 18.4062V26.4462C188.919 27.0062 189.049 27.4162 189.309 27.6762C189.589 27.9162 190.049 28.0362 190.689 28.0362H192.639V31.5762H189.999C186.459 31.5762 184.689 29.8562 184.689 26.4162V18.4062H182.709V14.9562H184.689V10.8462H188.919V14.9562H192.639V18.4062H188.919Z" fill="#737372"/>
</svg>
