<svg width="16" height="16" viewBox="0 0 16 16" fill="none" xmlns="http://www.w3.org/2000/svg">
<g clip-path="url(#clip0_168_58)">
<path fill-rule="evenodd" clip-rule="evenodd" d="M8.02789 3.43736C8.56227 3.43736 9.11039 3.45111 9.64164 3.47361L10.2691 3.50361L10.8698 3.53924L11.4323 3.57736L11.946 3.61736C12.5035 3.66004 13.0282 3.89795 13.4276 4.28926C13.827 4.68057 14.0757 5.2002 14.1298 5.75674L14.1548 6.02236L14.2016 6.59111C14.2454 7.18049 14.2779 7.82299 14.2779 8.43736C14.2779 9.05174 14.2454 9.69424 14.2016 10.2836L14.1548 10.8524C14.1466 10.9436 14.1385 11.0317 14.1298 11.118C14.0756 11.6746 13.8269 12.1943 13.4274 12.5857C13.0278 12.977 12.503 13.2148 11.9454 13.2574L11.4329 13.2967L10.8704 13.3355L10.2691 13.3711L9.64164 13.4011C9.10404 13.4245 8.566 13.4366 8.02789 13.4374C7.48978 13.4366 6.95175 13.4245 6.41414 13.4011L5.78664 13.3711L5.18602 13.3355L4.62352 13.2967L4.10977 13.2574C3.55224 13.2147 3.02761 12.9768 2.62819 12.5855C2.22876 12.1942 1.98013 11.6745 1.92602 11.118L1.90102 10.8524L1.85414 10.2836C1.80635 9.66932 1.78092 9.0535 1.77789 8.43736C1.77789 7.82299 1.81039 7.18049 1.85414 6.59111L1.90102 6.02236C1.90914 5.93111 1.91727 5.84299 1.92602 5.75674C1.98011 5.2003 2.22865 4.68075 2.62795 4.28945C3.02725 3.89816 3.55172 3.66018 4.10914 3.61736L4.62227 3.57736L5.18477 3.53924L5.78602 3.50361L6.41352 3.47361C6.95133 3.45026 7.48957 3.43817 8.02789 3.43736ZM6.77789 6.92174V9.95299C6.77789 10.2417 7.09039 10.4217 7.34039 10.278L9.96539 8.76236C10.0225 8.72948 10.07 8.68213 10.1029 8.62507C10.1359 8.56801 10.1533 8.50327 10.1533 8.43736C10.1533 8.37145 10.1359 8.30671 10.1029 8.24965C10.07 8.1926 10.0225 8.14524 9.96539 8.11236L7.34039 6.59736C7.28337 6.56444 7.21868 6.54711 7.15283 6.54712C7.08699 6.54713 7.0223 6.56448 6.96529 6.59742C6.90827 6.63036 6.86094 6.67774 6.82804 6.73478C6.79515 6.79182 6.77785 6.85652 6.77789 6.92236V6.92174Z" fill="#EAF9FF"/>
</g>
<defs>
<clipPath id="clip0_168_58">
<rect width="15" height="15" fill="white" transform="translate(0.527893 0.937363)"/>
</clipPath>
</defs>
</svg>
