<svg width="14" height="13" viewBox="0 0 14 13" fill="none" xmlns="http://www.w3.org/2000/svg">
<path d="M4.40289 0.187363H9.65289C11.6529 0.187363 13.2779 1.81236 13.2779 3.81236V9.06236C13.2779 10.0238 12.896 10.9458 12.2162 11.6256C11.5363 12.3054 10.6143 12.6874 9.65289 12.6874H4.40289C2.40289 12.6874 0.777893 11.0624 0.777893 9.06236V3.81236C0.777893 2.85095 1.15981 1.92892 1.83963 1.2491C2.51945 0.569281 3.44148 0.187363 4.40289 0.187363ZM4.27789 1.43736C3.68116 1.43736 3.10886 1.67442 2.6869 2.09637C2.26495 2.51833 2.02789 3.09063 2.02789 3.68736V9.18736C2.02789 10.4311 3.03414 11.4374 4.27789 11.4374H9.77789C10.3746 11.4374 10.9469 11.2003 11.3689 10.7784C11.7908 10.3564 12.0279 9.7841 12.0279 9.18736V3.68736C12.0279 2.44361 11.0216 1.43736 9.77789 1.43736H4.27789ZM10.3091 2.37486C10.5163 2.37486 10.7151 2.45717 10.8616 2.60369C11.0081 2.7502 11.0904 2.94891 11.0904 3.15611C11.0904 3.36331 11.0081 3.56203 10.8616 3.70854C10.7151 3.85505 10.5163 3.93736 10.3091 3.93736C10.1019 3.93736 9.90323 3.85505 9.75672 3.70854C9.6102 3.56203 9.52789 3.36331 9.52789 3.15611C9.52789 2.94891 9.6102 2.7502 9.75672 2.60369C9.90323 2.45717 10.1019 2.37486 10.3091 2.37486ZM7.02789 3.31236C7.85669 3.31236 8.65155 3.6416 9.2376 4.22765C9.82365 4.8137 10.1529 5.60856 10.1529 6.43736C10.1529 7.26616 9.82365 8.06102 9.2376 8.64707C8.65155 9.23312 7.85669 9.56236 7.02789 9.56236C6.19909 9.56236 5.40424 9.23312 4.81818 8.64707C4.23213 8.06102 3.90289 7.26616 3.90289 6.43736C3.90289 5.60856 4.23213 4.8137 4.81818 4.22765C5.40424 3.6416 6.19909 3.31236 7.02789 3.31236ZM7.02789 4.56236C6.53061 4.56236 6.0537 4.75991 5.70207 5.11154C5.35044 5.46317 5.15289 5.94008 5.15289 6.43736C5.15289 6.93464 5.35044 7.41156 5.70207 7.76319C6.0537 8.11482 6.53061 8.31236 7.02789 8.31236C7.52517 8.31236 8.00209 8.11482 8.35372 7.76319C8.70535 7.41156 8.90289 6.93464 8.90289 6.43736C8.90289 5.94008 8.70535 5.46317 8.35372 5.11154C8.00209 4.75991 7.52517 4.56236 7.02789 4.56236Z" fill="#EAF9FF"/>
</svg>
