<svg width="16" height="16" viewBox="0 0 16 16" fill="none" xmlns="http://www.w3.org/2000/svg">
<path d="M4.86542 4.06236C4.86525 4.39388 4.7334 4.71176 4.49886 4.94606C4.26432 5.18037 3.94631 5.3119 3.61479 5.31174C3.28327 5.31157 2.9654 5.17972 2.73109 4.94518C2.49679 4.71064 2.36525 4.39263 2.36542 4.06111C2.36558 3.72959 2.49744 3.41171 2.73198 3.17741C2.96651 2.94311 3.28452 2.81157 3.61604 2.81174C3.94756 2.8119 4.26544 2.94376 4.49974 3.1783C4.73405 3.41283 4.86558 3.73084 4.86542 4.06236ZM4.90292 6.23736H2.40292V14.0624H4.90292V6.23736ZM8.85292 6.23736H6.36542V14.0624H8.82792V9.95611C8.82792 7.66861 11.8092 7.45611 11.8092 9.95611V14.0624H14.2779V9.10611C14.2779 5.24986 9.86542 5.39361 8.82792 7.28736L8.85292 6.23736Z" fill="#EAF9FF"/>
</svg>
