<svg width="132" height="50" viewBox="0 0 132 50" fill="none" xmlns="http://www.w3.org/2000/svg">
<path d="M26.0896 46.4323V49.9013H0.706543V46.4323H26.0896ZM65.7572 46.4323C63.211 48.6716 59.8758 49.9102 56.4172 49.9011L29.7157 49.8669V46.4323H65.7572ZM103.499 46.4323L102.233 49.9011L100.978 46.4323H103.499ZM91.36 46.4323V49.9013H73.2294V46.4323H91.3598H91.36ZM131.247 46.4323V49.9013H113.117V46.4323H131.247ZM69.8644 39.8103C69.5532 41.0271 69.0619 42.1952 68.4055 43.2791H29.7157V39.8103H69.8644ZM105.929 39.8103L104.656 43.2794H99.8205L98.5477 39.8103H105.929ZM91.36 39.8103V43.2791H73.2294V39.8103H91.3598H91.36ZM131.247 39.8103V43.2791H113.117V39.8103H131.247ZM26.0896 39.8103V43.2791H0.706543V39.8103H26.0896ZM18.8369 33.1876V36.6567H7.9587V33.1876H18.8369ZM47.8461 33.1876V36.6567H36.9676V33.1876H47.8461ZM69.7772 33.1876C70.0985 34.3184 70.2616 35.4849 70.2621 36.6567H58.0655V33.1876H69.7772ZM108.359 33.1876L107.086 36.6567H97.3902L96.1169 33.1876H108.359ZM91.3598 33.1876V36.6567H80.4813V33.1876H91.3598ZM123.995 33.1876V36.6567H113.117V33.1876H123.995ZM18.8369 26.5655V30.0342H7.9587V26.5655H18.8369ZM91.3598 26.5655V30.0342H80.4813V26.5655H91.3598ZM123.995 26.5655V30.0342H113.117V26.5655H123.995ZM65.3765 26.5655C66.5841 27.5482 67.6071 28.7213 68.4012 30.034H36.9678V26.5652L65.3765 26.5655ZM110.789 26.5655L109.517 30.0342H94.9596L93.6868 26.5652L110.789 26.5655ZM101.219 19.9433L102.238 22.7472L103.257 19.9433H123.995V23.412H113.117V20.225L111.947 23.4123H92.5298L91.3598 20.2245V23.4123H80.4818V19.9433H101.219H101.219ZM36.9676 19.9433H68.4017C67.6075 21.2561 66.5845 22.4293 65.3768 23.412H36.9678V19.943L36.9676 19.9433ZM18.8369 19.9433V23.412H7.9587V19.943H18.8372L18.8369 19.9433ZM18.8369 13.3208V16.7896H7.9587V13.3208H18.8369ZM47.8461 13.3208V16.7896H36.9676V13.3208H47.8461ZM70.2624 13.3208C70.2617 14.4925 70.0986 15.659 69.7772 16.7896H58.0655V13.3208H70.2624ZM98.8113 13.3208L100.072 16.7896H80.4818V13.3208H98.8116H98.8113ZM123.995 13.3208V16.7896H104.404L105.665 13.3208H123.995ZM26.0891 6.69838V10.1674H0.706543V6.69814H26.0896L26.0891 6.69838ZM68.4052 6.69838C69.0617 7.78231 69.5529 8.95036 69.8641 10.1672H29.7152V6.69838H68.4052ZM131.247 6.69838V10.1672H106.811L108.072 6.69838H131.247H131.247ZM96.404 6.69838L97.665 10.1672H73.2291V6.69838H96.4042H96.404ZM26.0899 0.0764279V3.54496H0.706543V0.076184H26.0896L26.0899 0.0764279ZM56.4172 0.076184C59.8749 0.071706 63.2084 1.3097 65.7572 3.54496H29.7157V0.076184H56.4172ZM131.247 0.076184V3.54521H109.219L110.48 0.0764279L131.247 0.076184ZM93.9974 0.076184L95.2582 3.54521H73.2294V0.0764279H93.9971L93.9974 0.076184Z" fill="#00A3F7"/>
</svg>
