<svg width="184" height="38" viewBox="0 0 184 38" fill="none" xmlns="http://www.w3.org/2000/svg">
<path d="M34.8192 1.8584L22.4192 25.9084V37.1084H12.5692V25.9084L0.169238 1.8584H11.3692L17.5692 15.4584L23.7692 1.8584H34.8192ZM36.2278 23.0584C36.2278 20.1584 36.7445 17.6251 37.7778 15.4584C38.8445 13.2917 40.2778 11.6251 42.0778 10.4584C43.9112 9.29173 45.9445 8.7084 48.1778 8.7084C50.1112 8.7084 51.7778 9.09173 53.1778 9.8584C54.5778 10.6251 55.6612 11.6584 56.4278 12.9584V9.0584H66.2278V37.1084H56.4278V33.2084C55.6612 34.5084 54.5612 35.5417 53.1278 36.3084C51.7278 37.0751 50.0778 37.4584 48.1778 37.4584C45.9445 37.4584 43.9112 36.8751 42.0778 35.7084C40.2778 34.5417 38.8445 32.8751 37.7778 30.7084C36.7445 28.5084 36.2278 25.9584 36.2278 23.0584ZM56.4278 23.0584C56.4278 21.2584 55.9278 19.8417 54.9278 18.8084C53.9612 17.7751 52.7612 17.2584 51.3278 17.2584C49.8612 17.2584 48.6445 17.7751 47.6778 18.8084C46.7112 19.8084 46.2278 21.2251 46.2278 23.0584C46.2278 24.8584 46.7112 26.2917 47.6778 27.3584C48.6445 28.3917 49.8612 28.9084 51.3278 28.9084C52.7612 28.9084 53.9612 28.3917 54.9278 27.3584C55.9278 26.3251 56.4278 24.8917 56.4278 23.0584ZM90.2622 8.8084C93.4622 8.8084 95.9955 9.89173 97.8622 12.0584C99.7622 14.1917 100.712 17.0917 100.712 20.7584V37.1084H90.9122V22.0584C90.9122 20.4584 90.4955 19.2084 89.6622 18.3084C88.8289 17.3751 87.7122 16.9084 86.3122 16.9084C84.8455 16.9084 83.6955 17.3751 82.8622 18.3084C82.0289 19.2084 81.6122 20.4584 81.6122 22.0584V37.1084H71.8122V0.108398H81.6122V13.0584C82.4789 11.7917 83.6455 10.7751 85.1122 10.0084C86.6122 9.2084 88.3289 8.8084 90.2622 8.8084ZM119.14 37.4584C116.34 37.4584 113.823 36.8751 111.59 35.7084C109.39 34.5417 107.656 32.8751 106.39 30.7084C105.123 28.5417 104.49 25.9917 104.49 23.0584C104.49 20.1584 105.123 17.6251 106.39 15.4584C107.69 13.2917 109.44 11.6251 111.64 10.4584C113.873 9.29173 116.39 8.7084 119.19 8.7084C121.99 8.7084 124.49 9.29173 126.69 10.4584C128.923 11.6251 130.673 13.2917 131.94 15.4584C133.24 17.6251 133.89 20.1584 133.89 23.0584C133.89 25.9584 133.24 28.5084 131.94 30.7084C130.673 32.8751 128.923 34.5417 126.69 35.7084C124.456 36.8751 121.94 37.4584 119.14 37.4584ZM119.14 28.9584C120.506 28.9584 121.64 28.4584 122.54 27.4584C123.473 26.4251 123.94 24.9584 123.94 23.0584C123.94 21.1584 123.473 19.7084 122.54 18.7084C121.64 17.7084 120.523 17.2084 119.19 17.2084C117.856 17.2084 116.74 17.7084 115.84 18.7084C114.94 19.7084 114.49 21.1584 114.49 23.0584C114.49 24.9917 114.923 26.4584 115.79 27.4584C116.656 28.4584 117.773 28.9584 119.14 28.9584ZM150.927 37.4584C148.127 37.4584 145.61 36.8751 143.377 35.7084C141.177 34.5417 139.443 32.8751 138.177 30.7084C136.91 28.5417 136.277 25.9917 136.277 23.0584C136.277 20.1584 136.91 17.6251 138.177 15.4584C139.477 13.2917 141.227 11.6251 143.427 10.4584C145.66 9.29173 148.177 8.7084 150.977 8.7084C153.777 8.7084 156.277 9.29173 158.477 10.4584C160.71 11.6251 162.46 13.2917 163.727 15.4584C165.027 17.6251 165.677 20.1584 165.677 23.0584C165.677 25.9584 165.027 28.5084 163.727 30.7084C162.46 32.8751 160.71 34.5417 158.477 35.7084C156.243 36.8751 153.727 37.4584 150.927 37.4584ZM150.927 28.9584C152.293 28.9584 153.427 28.4584 154.327 27.4584C155.26 26.4251 155.727 24.9584 155.727 23.0584C155.727 21.1584 155.26 19.7084 154.327 18.7084C153.427 17.7084 152.31 17.2084 150.977 17.2084C149.643 17.2084 148.527 17.7084 147.627 18.7084C146.727 19.7084 146.277 21.1584 146.277 23.0584C146.277 24.9917 146.71 26.4584 147.577 27.4584C148.443 28.4584 149.56 28.9584 150.927 28.9584ZM182.764 0.0583956L181.614 23.9084H173.264L172.114 0.0583956H182.764ZM177.464 37.5084C175.73 37.5084 174.33 37.0417 173.264 36.1084C172.23 35.1417 171.714 33.9251 171.714 32.4584C171.714 30.9917 172.23 29.7751 173.264 28.8084C174.33 27.8417 175.73 27.3584 177.464 27.3584C179.164 27.3584 180.53 27.8417 181.564 28.8084C182.63 29.7751 183.164 30.9917 183.164 32.4584C183.164 33.8917 182.63 35.0917 181.564 36.0584C180.53 37.0251 179.164 37.5084 177.464 37.5084Z" fill="#3918C0"/>
</svg>
